<svg width="30" height="30" viewBox="0 0 30 30" fill="none" xmlns="http://www.w3.org/2000/svg">
<g clip-path="url(#clip0_101_495)">
<path d="M24.3477 15.2109L21.5001 14.1737C21.4122 14.1386 21.3067 14.121 21.2013 14.121H2.95519C2.46294 14.121 2.07628 14.5077 2.07628 14.9999V27.3632C2.07628 28.8222 3.25396 30 4.713 30H22.2912C23.7502 30 24.9279 28.8222 24.9279 27.3632V16.037C24.9279 15.6679 24.6993 15.3339 24.3477 15.2109Z" fill="#F4B513"/>
<path d="M24.9279 16.037V27.3632C24.9279 28.8222 23.7502 30 22.2912 30H13.5021V14.121H21.2013C21.3068 14.121 21.4122 14.1386 21.5001 14.1737L24.3477 15.2109C24.6993 15.3339 24.9279 15.6679 24.9279 16.037Z" fill="#DDA617"/>
<path d="M24.6115 5.72976C24.3127 4.51687 23.4162 3.5677 22.2033 3.18092C21.008 2.81172 19.7247 3.07546 18.7931 3.91915L16.754 5.71218L16.3497 3.02278C16.1564 1.79231 15.3654 0.755139 14.1877 0.263009C13.9592 0.17506 13.7307 0.104747 13.5021 0.0695911C12.5353 -0.123769 11.5334 0.0871692 10.7247 0.684885C9.65246 1.45832 9.1076 2.75911 9.28332 4.05983C9.47674 5.36062 10.3556 6.46804 11.6036 6.90749L13.5021 7.59304L15.84 8.45437C15.8576 8.45437 15.8576 8.45437 15.8576 8.45437L19.9182 9.94846C20.3224 10.0891 20.7443 10.1595 21.1486 10.1595C22.01 10.1595 22.8537 9.84299 23.5217 9.24539C24.506 8.36648 24.9279 7.0129 24.6115 5.72976Z" fill="white"/>
<path d="M23.5216 9.24543C22.8537 9.84303 22.0099 10.1596 21.1485 10.1596C20.7443 10.1596 20.3224 10.0892 19.9181 9.9485L15.8575 8.45441C15.8575 8.45441 15.8575 8.45441 15.84 8.45441L13.5021 7.59308V0.0695724C13.7306 0.104787 13.9591 0.175041 14.1876 0.262991C15.3653 0.755121 16.1564 1.79229 16.3497 3.02276L16.7539 5.71216L18.793 3.91913C19.7246 3.07544 21.0079 2.81171 22.2032 3.18091C23.4161 3.56768 24.3126 4.51685 24.6114 5.72974C24.9279 7.01295 24.506 8.36652 23.5216 9.24543Z" fill="white"/>
<path d="M27.9337 13.7167L26.7384 17.0214C26.5977 17.373 26.2638 17.5839 25.9122 17.5839C25.8067 17.5839 25.7013 17.5663 25.6134 17.5312L16.5255 14.2265L15.6993 11.5019L13.5021 11.994L11.5685 12.4335L2.48057 9.12881C2.02354 8.95309 1.79508 8.44326 1.95322 8.00381L3.16612 4.69923C3.39463 4.03126 3.88688 3.5038 4.51969 3.20503C5.15251 2.90626 5.87315 2.87104 6.54112 3.11714L13.5021 5.64839L13.9768 5.82412C13.9768 5.82412 15.8752 9.26949 15.928 9.26949C15.9632 9.26949 16.719 8.84762 17.4573 8.44326C18.1954 8.03896 18.9337 7.61715 18.9337 7.61715L26.3517 10.3241C27.0196 10.5702 27.547 11.0625 27.8457 11.6953C28.1447 12.328 28.1798 13.0488 27.9337 13.7167Z" fill="#FCC63D"/>
<path d="M27.9337 13.7167L26.7384 17.0214C26.5977 17.3729 26.2638 17.5839 25.9122 17.5839C25.8067 17.5839 25.7013 17.5663 25.6134 17.5312L16.5255 14.2265L15.6993 11.5019L13.5021 11.994V5.64837L13.9767 5.82409C13.9767 5.82409 15.8751 9.26947 15.9279 9.26947C15.9631 9.26947 16.7189 8.84759 17.4572 8.44324C18.1954 8.03894 18.9337 7.61712 18.9337 7.61712L26.3517 10.3241C27.0196 10.5702 27.547 11.0624 27.8457 11.6953C28.1447 12.328 28.1798 13.0488 27.9337 13.7167Z" fill="#F4B513"/>
<path d="M10.8654 14.121V30H16.1388V14.121H10.8654Z" fill="white"/>
<path d="M13.9767 5.82408L13.502 7.12486L11.5685 12.4335L13.502 13.1367L15.6993 13.9277L16.5254 14.2265L18.9337 7.61711L13.9767 5.82408Z" fill="white"/>
<path d="M16.139 14.121H13.5023V30H16.139V14.121Z" fill="white"/>
<path d="M18.9337 7.61712L16.5255 14.2265L15.6993 13.9277L13.5021 13.1367V7.12487L13.9767 5.82409L18.9337 7.61712Z" fill="white"/>
</g>
<defs>
<clipPath id="clip0_101_495">
<rect width="30" height="30" fill="white"/>
</clipPath>
</defs>
</svg>
