<svg width="24" height="24" viewBox="0 0 24 24" fill="none" xmlns="http://www.w3.org/2000/svg">
<g clip-path="url(#clip0_161_1459)">
<path d="M8.92969 3.225L10.5609 6H10.5H10.125H7.125C6.08906 6 5.25 5.16094 5.25 4.125C5.25 3.08906 6.08906 2.25 7.125 2.25H7.22812C7.92656 2.25 8.57812 2.62031 8.92969 3.225ZM12 4.00781L10.8703 2.08594C10.1109 0.792187 8.72344 0 7.22812 0H7.125C4.84688 0 3 1.84688 3 4.125C3 6.40312 4.84688 8.25 7.125 8.25H10.125H10.5V12H13.5V8.25H16.875C19.1531 8.25 21 6.40312 21 4.125C21 1.84688 19.1531 0 16.875 0H16.7719C15.2766 0 13.8891 0.792188 13.1297 2.08125L12 4.00781ZM15.0703 3.225C15.4266 2.62031 16.0734 2.25 16.7719 2.25H16.875C17.9109 2.25 18.75 3.08906 18.75 4.125C18.75 5.16094 17.9109 6 16.875 6H13.4391L15.0703 3.225ZM13.5 24V13.5H10.5V24H13.5Z" fill="#F4B513"/>
<path opacity="0.4" d="M3.45 6C4.13438 7.33594 5.52187 8.25 7.125 8.25H10.125H10.5V12H1.5C0.670312 12 0 11.3297 0 10.5V7.5C0 6.67031 0.670312 6 1.5 6H3.45ZM22.5 12H13.5V8.25H16.875C18.4781 8.25 19.8656 7.33594 20.55 6H22.5C23.3297 6 24 6.67031 24 7.5V10.5C24 11.3297 23.3297 12 22.5 12ZM1.5 13.5H10.5V24H3.75C2.50781 24 1.5 22.9922 1.5 21.75V13.5ZM13.5 24V13.5H22.5V21.75C22.5 22.9922 21.4922 24 20.25 24H13.5Z" fill="#F4B513"/>
</g>
<defs>
<clipPath id="clip0_161_1459">
<rect width="24" height="24" fill="white"/>
</clipPath>
</defs>
</svg>
