<svg width="24" height="24" viewBox="0 0 24 24" fill="none" xmlns="http://www.w3.org/2000/svg">
<g clip-path="url(#clip0_161_1466)">
<path d="M1.5 6.1875V2.25C1.5 1.8375 1.1625 1.5 0.75 1.5C0.3375 1.5 0 1.8375 0 2.25V8.25C0 8.6625 0.3375 9 0.75 9H6.75C7.1625 9 7.5 8.6625 7.5 8.25C7.5 7.8375 7.1625 7.5 6.75 7.5H2.5125C4.19531 3.95156 7.81406 1.5 12 1.5C17.7984 1.5 22.5 6.20156 22.5 12C22.5 17.7984 17.7984 22.5 12 22.5C8.56406 22.5 5.51719 20.85 3.6 18.3C3.35156 17.9672 2.88281 17.9016 2.55 18.15C2.21719 18.3984 2.15156 18.8672 2.4 19.2C4.58906 22.1156 8.07187 24 12 24C18.6281 24 24 18.6281 24 12C24 5.37188 18.6281 0 12 0C7.48125 0 3.54844 2.49844 1.5 6.1875ZM12 6C11.5875 6 11.25 6.3375 11.25 6.75V12C11.25 12.1969 11.3297 12.3891 11.4703 12.5297L15.2203 16.2797C15.5109 16.5703 15.9891 16.5703 16.2797 16.2797C16.5703 15.9891 16.5703 15.5109 16.2797 15.2203L12.75 11.6906V6.75C12.75 6.3375 12.4125 6 12 6Z" fill="#6C6A64"/>
</g>
<defs>
<clipPath id="clip0_161_1466">
<rect width="24" height="24" fill="white"/>
</clipPath>
</defs>
</svg>
