<svg width="24" height="24" viewBox="0 0 24 24" fill="none" xmlns="http://www.w3.org/2000/svg">
<g clip-path="url(#clip0_161_1464)">
<path d="M17.1141 1.5C16.2891 1.5 15.525 1.92188 15.0891 2.62031L12.9797 6H13.5H17.25C18.4922 6 19.5 4.99219 19.5 3.75C19.5 2.50781 18.4922 1.5 17.25 1.5H17.1141ZM11.0203 6L8.91094 2.62031C8.475 1.92188 7.71094 1.5 6.88594 1.5H6.75C5.50781 1.5 4.5 2.50781 4.5 3.75C4.5 4.99219 5.50781 6 6.75 6H10.5H11.0203ZM12 4.73438L13.8187 1.82812C14.5312 0.69375 15.7734 0 17.1141 0H17.25C19.3219 0 21 1.67812 21 3.75C21 4.59375 20.7188 5.37187 20.25 6H21.75C22.9922 6 24 7.00781 24 8.25V11.25C24 12.2297 23.3719 13.0641 22.5 13.3734V13.5V21C22.5 22.6547 21.1547 24 19.5 24H4.5C2.84531 24 1.5 22.6547 1.5 21V13.5V13.3734C0.628125 13.0641 0 12.2297 0 11.25V8.25C0 7.00781 1.00781 6 2.25 6H3.75C3.28125 5.37187 3 4.59375 3 3.75C3 1.67812 4.67812 0 6.75 0H6.88594C8.22656 0 9.47344 0.689063 10.1812 1.82812L12 4.73438ZM6.75 7.5H2.25C1.8375 7.5 1.5 7.8375 1.5 8.25V11.25C1.5 11.6625 1.8375 12 2.25 12H3H11.25V7.5H10.5H6.75ZM12.75 7.5V12H21H21.75C22.1625 12 22.5 11.6625 22.5 11.25V8.25C22.5 7.8375 22.1625 7.5 21.75 7.5H17.25H13.5H12.75ZM11.25 13.5H3V21C3 21.8297 3.67031 22.5 4.5 22.5H11.25V13.5ZM12.75 22.5H19.5C20.3297 22.5 21 21.8297 21 21V13.5H12.75V22.5Z" fill="#6C6A64"/>
</g>
<defs>
<clipPath id="clip0_161_1464">
<rect width="24" height="24" fill="white"/>
</clipPath>
</defs>
</svg>
