<svg width="18" height="18" viewBox="0 0 18 18" fill="none" xmlns="http://www.w3.org/2000/svg">
<path d="M10.226 1.01173C10.226 0.436247 9.76298 -0.0267334 9.1875 -0.0267334C8.61202 -0.0267334 8.14904 0.436247 8.14904 1.01173V7.93481H1.22596C0.650481 7.93481 0.1875 8.39779 0.1875 8.97327C0.1875 9.54875 0.650481 10.0117 1.22596 10.0117H8.14904V16.9348C8.14904 17.5103 8.61202 17.9733 9.1875 17.9733C9.76298 17.9733 10.226 17.5103 10.226 16.9348V10.0117H17.149C17.7245 10.0117 18.1875 9.54875 18.1875 8.97327C18.1875 8.39779 17.7245 7.93481 17.149 7.93481H10.226V1.01173Z" fill="#F4B513"/>
</svg>
