<svg width="18" height="18" viewBox="0 0 18 18" fill="none" xmlns="http://www.w3.org/2000/svg">
<path d="M8.15273 1.56094C7.5832 0.594141 6.54258 0 5.42109 0H5.34375C3.63516 0 2.25 1.38516 2.25 3.09375C2.25 3.6 2.37305 4.07812 2.5875 4.5H1.6875C0.755859 4.5 0 5.25586 0 6.1875V8.4375C0 9.17227 0.471094 9.79805 1.125 10.0301V10.125V15.75C1.125 16.991 2.13398 18 3.375 18H14.625C15.866 18 16.875 16.991 16.875 15.75V10.125V10.0301C17.5289 9.79805 18 9.17227 18 8.4375V6.1875C18 5.25586 17.2441 4.5 16.3125 4.5H15.4125C15.627 4.07812 15.75 3.6 15.75 3.09375C15.75 1.38516 14.3648 0 12.6562 0H12.5789C11.4574 0 10.4168 0.594141 9.84727 1.56094L9 3.00586L8.15273 1.56445V1.56094ZM16.3125 6.1875V8.4375H15.1875H10.125V6.1875H12.6562H16.3125ZM7.875 6.1875V8.4375H2.8125H1.6875V6.1875H5.34375H7.875ZM7.875 10.125V16.3125H3.375C3.06562 16.3125 2.8125 16.0594 2.8125 15.75V10.125H7.875ZM10.125 16.3125V10.125H15.1875V15.75C15.1875 16.0594 14.9344 16.3125 14.625 16.3125H10.125ZM12.6562 4.5H10.125H10.0793L11.3027 2.41875C11.5699 1.96523 12.0551 1.6875 12.5789 1.6875H12.6562C13.4332 1.6875 14.0625 2.3168 14.0625 3.09375C14.0625 3.8707 13.4332 4.5 12.6562 4.5ZM7.875 4.5H5.34375C4.5668 4.5 3.9375 3.8707 3.9375 3.09375C3.9375 2.3168 4.5668 1.6875 5.34375 1.6875H5.42109C5.94492 1.6875 6.43359 1.96523 6.69727 2.41875L7.9207 4.5H7.875Z" fill="#F4B513"/>
</svg>
